<svg xmlns="http://www.w3.org/2000/svg" width="48" height="48" id="idea">
  <g transform="translate(0 -1004.362)">
    <circle cx="24" cy="1028.362" r="24" fill="#50b748" fill-rule="evenodd"></circle>
    <path fill="#10a711" d="M30.553 47.064a24 24 0 0 0 .539-.136 24 24 0 0 0 2.254-.823 24 24 0 0 0 2.16-1.042 24 24 0 0 0 2.045-1.254 24 24 0 0 0 1.91-1.454 24 24 0 0 0 1.756-1.634 24 24 0 0 0 1.584-1.803 24 24 0 0 0 1.394-1.951 24 24 0 0 0 1.194-2.08 24 24 0 0 0 .98-2.19 24 24 0 0 0 .756-2.277 24 24 0 0 0 .459-2.047l-18.02-18.02v-.001l-.375-.33-.322-.284-.033-.025-.459-.34-.402-.299v.004l-.229.309-.826-.826-.479-.149-.445-.139-.04-.01-.522-.115-.489-.105-.2.922-.98-.979-.495.063-.6.08-.043.01-.385.086-.488.107.217.977.81.81c-.189.042-.373.096-.554.156l-1.52-1.52-.445.23-.045.023-.037.02-.514.32-.033.021-.276.207-.4.297v.002l.598.799v.002l.726.726c-.217.194-.425.4-.611.625l-.723-.722v-.002l-.777-.627v.004l-.314.39v.002l-.047.059v.002l-.026.03v.001l-.34.502v.002l-.023.035v.002l-.154.274v.001l-.243.436v.002l1.596 1.596a5.554 5.554 0 0 0-.14.593l-.887-.886v-.002l-.969-.246v.004l-.123.482v.002l-.043.166v.002l-.008.04v.003l-.103.623v.002l-.004.04v.003l-.016.19v.001l-.037.498v.002l.96.96-.91.167.09.492.05.268.01.041.16.584.013.041.041.113.172.471.8.8-.302.21.283.412.166.242.026.033.384.469.028.03.07.072.348.359 2.78 2.78v2.454a.5.5 0 0 0 .5.5l1.546 1.547v1.717l-.543-.543c-.029-.029-.065-.048-.094-.076-.215-.206-.44-.4-.687-.569l-.008-.005c-.007-.005-.015-.008-.022-.012a5.324 5.324 0 0 0-.779-.426c-.075-.034-.148-.071-.224-.101-.052-.02-.105-.038-.157-.057a5.244 5.244 0 0 0-1.013-.254c-.05-.007-.099-.018-.149-.023a5.267 5.267 0 0 0-.613-.04h-.002c-.63 0-1.252.117-1.842.336l-.367.137.045.389c.036.322.105.633.195.933.035.115.086.22.127.33.069.183.136.366.223.538.06.12.135.229.205.343.09.15.18.297.283.436.08.107.168.204.256.305.08.092.15.193.236.279l4.93 4.93v2.87l7.05 7.051z" color="#000" font-family="sans-serif" font-weight="400" style="line-height:normal;text-indent:0;text-align:start;text-decoration-line:none;text-decoration-style:solid;text-decoration-color:#000;text-transform:none;block-progression:tb;isolation:auto;mix-blend-mode:normal" transform="translate(0 1004.362)"></path>
    <path fill="#fff" d="m15.762-.025-.496.062-.6.08-.043.01-.385.086-.488.107.217.977.488-.108.385-.085h.002l.555-.073.496-.064-.131-.992zm1.18.054-.213.979.488.105.51.114h.011l.403.127.478.148.297-.955-.479-.149-.445-.138-.04-.01-.522-.115-.489-.106Zm-4.239.713-.445.229-.045.025-.037.02-.514.32-.033.023-.275.205-.4.3.597.8.4-.299.264-.195.012-.01.455-.281.033-.018.445-.228-.457-.89zm7.268.322-.594.803.4.297.444.328.306.27.375.33.66-.752-.375-.33-.322-.283-.033-.024-.459-.34-.402-.299ZM16 1.97c-3.096 0-5.617 2.517-5.617 5.61 0 1.699.852 2.909 1.611 4.12.4.637.778 1.282 1.05 2.026l-.25-.123-.01-.01-.302-.182-.427-.258-.518.86.43.257.312.19.037.02.57.279.45.22.023-.048c.057.35.094.718.094 1.125v2.46a.5.5 0 0 0 .5.5H15.5v3.356a5.319 5.319 0 0 0-4.29-2.197h-.001c-.63 0-1.252.116-1.842.336L9 20.646l.045.39a5.333 5.333 0 0 0 5.289 4.726h.002c.393 0 .782-.061 1.164-.149V32h1v-4.1c.398.096.802.161 1.213.163h.002c2.679 0 4.94-2.02 5.242-4.682l.043-.389-.365-.137a5.281 5.281 0 0 0-1.826-.332h-.002c-1.773 0-3.347.898-4.307 2.268v-5.775h1.547a.5.5 0 0 0 .5-.5v-2.461c0-.378.032-.722.082-1.051l.512-.258.279-.139.45-.22-.446-.897-.447.22-.022.01c.273-.741.652-1.385 1.05-2.02.76-1.212 1.612-2.422 1.612-4.122 0-3.092-2.521-5.61-5.617-5.61zm-5.834.697-.314.393-.047.06-.026.031-.34.504-.023.037-.154.276-.242.437.873.487.242-.436.133-.24.003-.01.313-.463.006-.01.04-.05.313-.389-.777-.627zM16 2.969a4.606 4.606 0 0 1 4.617 4.61c0 1.365-.683 2.351-1.459 3.589-.706 1.127-1.39 2.521-1.52 4.387H16.5v-3.412a.5.5 0 1 0-1 0v3.412h-1.139c-.13-1.866-.813-3.26-1.52-4.387-.775-1.238-1.458-2.224-1.458-3.59A4.606 4.606 0 0 1 16 2.968Zm6.326.267-.873.489.246.435.28.492.005.016.157.344.207.455.91-.414-.207-.455-.162-.358-.02-.039-.299-.53-.244-.435ZM8.62 5.463l-.123.484-.043.168-.008.043-.103.625-.004.043-.016.192-.037.5.998.074.037-.498.01-.15.002-.01.098-.602.002-.014.033-.125.123-.484-.969-.246zm14.934.68-.987.166.082.492.016.09.047.603-.002.213-.004.5 1 .012.004-.5.002-.256-.002-.045-.049-.621-.006-.043-.02-.117-.081-.494zM9.318 8.463l-.982.182.09.492.049.267.01.041.16.584.013.041.041.114.172.47.94-.343-.172-.471-.037-.102-.004-.011-.143-.52-.045-.252-.092-.492Zm13.26.615-.13.48-.048.176-.002.01-.183.506-.08.172-.21.453.909.418.209-.453.088-.188.015-.039.206-.568.013-.04.049-.183.129-.482-.965-.262zm-12.385 2.02-.824.566.283.412.166.242.026.034.385.468.027.032.07.072.348.36.719-.698-.35-.36-.057-.058-.011-.012-.342-.418-.156-.228-.284-.412zm11.272.52-.317.386-.119.146-.396.413-.012.011-.103.092-.377.326.658.754.377-.33.135-.12.03-.026.423-.438.029-.033.133-.162.314-.389-.775-.63zm-7.012 4.937h1.467a.5.5 0 0 0 .162 0h1.465v1.46h-3.094v-1.46zm-3.242 4.619h.002c2.044 0 3.721 1.445 4.16 3.398-.342.087-.683.188-1.037.19-2.045 0-3.725-1.445-4.164-3.399.342-.087.684-.188 1.039-.19zm9.594 2.35h.002c.348 0 .684.1 1.021.185-.436 1.928-2.093 3.351-4.111 3.353-.35 0-.686-.1-1.024-.185.436-1.928 2.093-3.351 4.112-3.354z" color="#000" font-family="sans-serif" font-weight="400" overflow="visible" style="line-height:normal;text-indent:0;text-align:start;text-decoration-line:none;text-decoration-style:solid;text-decoration-color:#000;text-transform:none;block-progression:tb;isolation:auto;mix-blend-mode:normal" transform="translate(8.002 1012.375)"></path>
  </g>
</svg>
